<?xml version="1.0" encoding="utf-8"?>
<!-- Generator: Adobe Illustrator 16.0.0, SVG Export Plug-In . SVG Version: 6.00 Build 0)  -->
<!DOCTYPE svg PUBLIC "-//W3C//DTD SVG 1.1//EN" "http://www.w3.org/Graphics/SVG/1.1/DTD/svg11.dtd">
<svg version="1.1" id="Layer_1" xmlns="http://www.w3.org/2000/svg" xmlns:xlink="http://www.w3.org/1999/xlink" x="0px" y="0px"
	 width="20px" height="19.889px" viewBox="0 0 20 19.889" enable-background="new 0 0 20 19.889" xml:space="preserve">
<path d="M6.217,8.819C5.963,7.74,8.374,6.597,7.931,5.137C7.576,3.972,5.444,1.468,3.866,2.849
	c-1.579,1.382-2.91,5.476,2.318,10.854c5.229,5.375,9.174,3.599,10.062,2.86c0.889-0.739,1.636-2.02,1.135-2.763
	c-0.532-0.79-1.961-2.125-2.912-2.029c-0.947,0.096-1.283,0.73-1.97,1.438c-0.689,0.705-1.334,1.085-2.467,0
	C8.897,12.122,6.41,9.638,6.217,8.819z"/>
</svg>
